<svg width="972px" height="636px" viewBox="0 0 972 636" xmlns="http://www.w3.org/2000/svg" xmlns:xlink="http://www.w3.org/1999/xlink" xml:space="preserve">
    <style>
        * {
            font-family: JetBrains Mono,DejaVu Sans Mono,Menlo,Consolas,monospace, monospace;
            font-size: 15px;
        }
        tspan, text {
            font-variant-ligatures: none;
            dominant-baseline: central;
            white-space: pre;
            fill: #bbbbbb;
        }
        .bg {
            stroke-width: "0.5px";
        }
        .bold {
            font-weight: bold;
        }
        <!-- Background custom colors -->
        .bc0 { stroke: #1a1815; fill: #1a1815; }
        .bc1 { stroke: #dd9803; fill: #dd9803; }
        .bc2 { stroke: #1c1c1a; fill: #1c1c1a; }
        .bc3 { stroke: #3a3222; fill: #3a3222; }
        <!-- Foreground custom colors -->
        .fc0 { fill: #e6e2d6; }
        .fc1 { fill: #e2b01c; }
        .fc2 { fill: #f3d33e; }
        .fc3 { fill: #b0a793; }
        .fc4 { fill: #14140f; }
        .fc5 { fill: #f1bc1b; }
    </style>
    <rect width="100%" height="100%" x="0" y="0" style="fill: #000000"/>
<g class="bg">
<rect x="189px" y="238px" width="594px" height="20px" class="bc0"/>
<rect x="189px" y="258px" width="594px" height="20px" class="bc0"/>
<rect x="189px" y="278px" width="594px" height="20px" class="bc0"/>
<rect x="189px" y="298px" width="594px" height="20px" class="bc0"/>
<rect x="189px" y="318px" width="594px" height="20px" class="bc0"/>
<rect x="189px" y="338px" width="594px" height="20px" class="bc0"/>
<rect x="189px" y="358px" width="594px" height="20px" class="bc0"/>
<rect x="189px" y="378px" width="594px" height="20px" class="bc0"/>
<rect x="18px" y="598px" width="45px" height="20px" class="bc1"/>
<rect x="63px" y="598px" width="810px" height="20px" class="bc2"/>
<rect x="873px" y="598px" width="81px" height="20px" class="bc3"/>
</g>
<text x="18px" y="88px"><tspan x="18px"> </tspan><tspan x="27px"> </tspan><tspan x="36px"> </tspan><tspan x="45px"> </tspan><tspan x="54px"> </tspan><tspan x="63px"> </tspan><tspan x="72px"> </tspan><tspan x="81px"> </tspan><tspan x="90px"> </tspan><tspan x="99px"> </tspan><tspan x="108px"> </tspan><tspan x="117px" class="fc0">L</tspan><tspan x="126px" class="fc0">o</tspan><tspan x="135px" class="fc0">r</tspan><tspan x="144px" class="fc0">e</tspan><tspan x="153px" class="fc0">m</tspan><tspan x="162px" class="fc0"> </tspan><tspan x="171px" class="fc0">i</tspan><tspan x="180px" class="fc0">p</tspan><tspan x="189px" class="fc0">s</tspan><tspan x="198px" class="fc0">u</tspan><tspan x="207px" class="fc0">m</tspan><tspan x="216px" class="fc0"> </tspan><tspan x="225px" class="fc0">d</tspan><tspan x="234px" class="fc0">o</tspan><tspan x="243px" class="fc0">l</tspan><tspan x="252px" class="fc0">o</tspan><tspan x="261px" class="fc0">r</tspan><tspan x="270px" class="fc0"> </tspan><tspan x="279px" class="fc0">s</tspan><tspan x="288px" class="fc0">i</tspan><tspan x="297px" class="fc0">t</tspan><tspan x="306px" class="fc0"> </tspan><tspan x="315px" class="fc0">a</tspan><tspan x="324px" class="fc0">m</tspan><tspan x="333px" class="fc0">e</tspan><tspan x="342px" class="fc0">t</tspan><tspan x="351px" class="fc0">,</tspan><tspan x="360px" class="fc0"> </tspan><tspan x="369px" class="fc0">c</tspan><tspan x="378px" class="fc0">o</tspan><tspan x="387px" class="fc0">n</tspan><tspan x="396px" class="fc0">s</tspan><tspan x="405px" class="fc0">e</tspan><tspan x="414px" class="fc0">c</tspan><tspan x="423px" class="fc0">t</tspan><tspan x="432px" class="fc0">e</tspan><tspan x="441px" class="fc0">t</tspan><tspan x="450px" class="fc0">u</tspan><tspan x="459px" class="fc0">r</tspan><tspan x="468px" class="fc0"> </tspan><tspan x="477px" class="fc0">a</tspan><tspan x="486px" class="fc0">d</tspan><tspan x="495px" class="fc0">i</tspan><tspan x="504px" class="fc0">p</tspan><tspan x="513px" class="fc0">i</tspan><tspan x="522px" class="fc0">s</tspan><tspan x="531px" class="fc0">c</tspan><tspan x="540px" class="fc0">i</tspan><tspan x="549px" class="fc0">n</tspan><tspan x="558px" class="fc0">g</tspan><tspan x="567px" class="fc0"> </tspan><tspan x="576px" class="fc0">e</tspan><tspan x="585px" class="fc0">l</tspan><tspan x="594px" class="fc0">i</tspan><tspan x="603px" class="fc0">t</tspan><tspan x="612px" class="fc0">,</tspan><tspan x="621px" class="fc0"> </tspan><tspan x="630px" class="fc0">s</tspan><tspan x="639px" class="fc0">e</tspan><tspan x="648px" class="fc0">d</tspan><tspan x="657px" class="fc0"> </tspan><tspan x="666px" class="fc0">d</tspan><tspan x="675px" class="fc0">o</tspan><tspan x="684px" class="fc0"> </tspan><tspan x="693px" class="fc0">e</tspan><tspan x="702px" class="fc0">i</tspan><tspan x="711px" class="fc0">u</tspan><tspan x="720px" class="fc0">s</tspan><tspan x="729px" class="fc0">m</tspan><tspan x="738px" class="fc0">o</tspan><tspan x="747px" class="fc0">d</tspan><tspan x="756px" class="fc0"> </tspan><tspan x="765px" class="fc0">t</tspan><tspan x="774px" class="fc0">e</tspan><tspan x="783px" class="fc0">m</tspan><tspan x="792px" class="fc0">p</tspan><tspan x="801px" class="fc0">o</tspan><tspan x="810px" class="fc0">r</tspan></text>
<text x="18px" y="108px"><tspan x="18px"> </tspan><tspan x="27px"> </tspan><tspan x="36px"> </tspan><tspan x="45px"> </tspan><tspan x="54px"> </tspan><tspan x="63px"> </tspan><tspan x="72px"> </tspan><tspan x="81px"> </tspan><tspan x="90px"> </tspan><tspan x="99px"> </tspan><tspan x="108px"> </tspan><tspan x="117px" class="fc0">i</tspan><tspan x="126px" class="fc0">n</tspan><tspan x="135px" class="fc0">c</tspan><tspan x="144px" class="fc0">i</tspan><tspan x="153px" class="fc0">d</tspan><tspan x="162px" class="fc0">i</tspan><tspan x="171px" class="fc0">d</tspan><tspan x="180px" class="fc0">u</tspan><tspan x="189px" class="fc0">n</tspan><tspan x="198px" class="fc0">t</tspan><tspan x="207px" class="fc0"> </tspan><tspan x="216px" class="fc0">u</tspan><tspan x="225px" class="fc0">t</tspan><tspan x="234px" class="fc0"> </tspan><tspan x="243px" class="fc0">l</tspan><tspan x="252px" class="fc0">a</tspan><tspan x="261px" class="fc0">b</tspan><tspan x="270px" class="fc0">o</tspan><tspan x="279px" class="fc0">r</tspan><tspan x="288px" class="fc0">e</tspan><tspan x="297px" class="fc0"> </tspan><tspan x="306px" class="fc0">e</tspan><tspan x="315px" class="fc0">t</tspan><tspan x="324px" class="fc0"> </tspan><tspan x="333px" class="fc0">d</tspan><tspan x="342px" class="fc0">o</tspan><tspan x="351px" class="fc0">l</tspan><tspan x="360px" class="fc0">o</tspan><tspan x="369px" class="fc0">r</tspan><tspan x="378px" class="fc0">e</tspan><tspan x="387px" class="fc0"> </tspan><tspan x="396px" class="fc0">m</tspan><tspan x="405px" class="fc0">a</tspan><tspan x="414px" class="fc0">g</tspan><tspan x="423px" class="fc0">n</tspan><tspan x="432px" class="fc0">a</tspan><tspan x="441px" class="fc0"> </tspan><tspan x="450px" class="fc0">a</tspan><tspan x="459px" class="fc0">l</tspan><tspan x="468px" class="fc0">i</tspan><tspan x="477px" class="fc0">q</tspan><tspan x="486px" class="fc0">u</tspan><tspan x="495px" class="fc0">a</tspan><tspan x="504px" class="fc0">.</tspan><tspan x="513px" class="fc0"> </tspan><tspan x="522px" class="fc0">U</tspan><tspan x="531px" class="fc0">t</tspan><tspan x="540px" class="fc0"> </tspan><tspan x="549px" class="fc0">e</tspan><tspan x="558px" class="fc0">n</tspan><tspan x="567px" class="fc0">i</tspan><tspan x="576px" class="fc0">m</tspan><tspan x="585px" class="fc0"> </tspan><tspan x="594px" class="fc0">a</tspan><tspan x="603px" class="fc0">d</tspan><tspan x="612px" class="fc0"> </tspan><tspan x="621px" class="fc0">m</tspan><tspan x="630px" class="fc0">i</tspan><tspan x="639px" class="fc0">n</tspan><tspan x="648px" class="fc0">i</tspan><tspan x="657px" class="fc0">m</tspan><tspan x="666px" class="fc0"> </tspan><tspan x="675px" class="fc0">v</tspan><tspan x="684px" class="fc0">e</tspan><tspan x="693px" class="fc0">n</tspan><tspan x="702px" class="fc0">i</tspan><tspan x="711px" class="fc0">a</tspan><tspan x="720px" class="fc0">m</tspan><tspan x="729px" class="fc0">,</tspan><tspan x="738px" class="fc0"> </tspan><tspan x="747px" class="fc0">q</tspan><tspan x="756px" class="fc0">u</tspan><tspan x="765px" class="fc0">i</tspan><tspan x="774px" class="fc0">s</tspan></text>
<text x="18px" y="128px"><tspan x="18px"> </tspan><tspan x="27px"> </tspan><tspan x="36px"> </tspan><tspan x="45px"> </tspan><tspan x="54px"> </tspan><tspan x="63px"> </tspan><tspan x="72px"> </tspan><tspan x="81px"> </tspan><tspan x="90px"> </tspan><tspan x="99px"> </tspan><tspan x="108px"> </tspan><tspan x="117px" class="fc0">n</tspan><tspan x="126px" class="fc0">o</tspan><tspan x="135px" class="fc0">s</tspan><tspan x="144px" class="fc0">t</tspan><tspan x="153px" class="fc0">r</tspan><tspan x="162px" class="fc0">u</tspan><tspan x="171px" class="fc0">d</tspan><tspan x="180px" class="fc0"> </tspan><tspan x="189px" class="fc0">e</tspan><tspan x="198px" class="fc0">x</tspan><tspan x="207px" class="fc0">e</tspan><tspan x="216px" class="fc0">r</tspan><tspan x="225px" class="fc0">c</tspan><tspan x="234px" class="fc0">i</tspan><tspan x="243px" class="fc0">t</tspan><tspan x="252px" class="fc0">a</tspan><tspan x="261px" class="fc0">t</tspan><tspan x="270px" class="fc0">i</tspan><tspan x="279px" class="fc0">o</tspan><tspan x="288px" class="fc0">n</tspan><tspan x="297px" class="fc0"> </tspan><tspan x="306px" class="fc0">u</tspan><tspan x="315px" class="fc0">l</tspan><tspan x="324px" class="fc0">l</tspan><tspan x="333px" class="fc0">a</tspan><tspan x="342px" class="fc0">m</tspan><tspan x="351px" class="fc0">c</tspan><tspan x="360px" class="fc0">o</tspan><tspan x="369px" class="fc0"> </tspan><tspan x="378px" class="fc0">l</tspan><tspan x="387px" class="fc0">a</tspan><tspan x="396px" class="fc0">b</tspan><tspan x="405px" class="fc0">o</tspan><tspan x="414px" class="fc0">r</tspan><tspan x="423px" class="fc0">i</tspan><tspan x="432px" class="fc0">s</tspan><tspan x="441px" class="fc0"> </tspan><tspan x="450px" class="fc0">n</tspan><tspan x="459px" class="fc0">i</tspan><tspan x="468px" class="fc0">s</tspan><tspan x="477px" class="fc0">i</tspan><tspan x="486px" class="fc0"> </tspan><tspan x="495px" class="fc0">u</tspan><tspan x="504px" class="fc0">t</tspan><tspan x="513px" class="fc0"> </tspan><tspan x="522px" class="fc0">a</tspan><tspan x="531px" class="fc0">l</tspan><tspan x="540px" class="fc0">i</tspan><tspan x="549px" class="fc0">q</tspan><tspan x="558px" class="fc0">u</tspan><tspan x="567px" class="fc0">i</tspan><tspan x="576px" class="fc0">p</tspan><tspan x="585px" class="fc0"> </tspan><tspan x="594px" class="fc0">e</tspan><tspan x="603px" class="fc0">x</tspan><tspan x="612px" class="fc0"> </tspan><tspan x="621px" class="fc0">e</tspan><tspan x="630px" class="fc0">a</tspan><tspan x="639px" class="fc0"> </tspan><tspan x="648px" class="fc0">c</tspan><tspan x="657px" class="fc0">o</tspan><tspan x="666px" class="fc0">m</tspan><tspan x="675px" class="fc0">m</tspan><tspan x="684px" class="fc0">o</tspan><tspan x="693px" class="fc0">d</tspan><tspan x="702px" class="fc0">o</tspan><tspan x="711px" class="fc0"> </tspan><tspan x="720px" class="fc0">c</tspan><tspan x="729px" class="fc0">o</tspan><tspan x="738px" class="fc0">n</tspan><tspan x="747px" class="fc0">s</tspan><tspan x="756px" class="fc0">e</tspan><tspan x="765px" class="fc0">q</tspan><tspan x="774px" class="fc0">u</tspan><tspan x="783px" class="fc0">a</tspan><tspan x="792px" class="fc0">t</tspan><tspan x="801px" class="fc0">.</tspan></text>
<text x="18px" y="168px"><tspan x="18px"> </tspan><tspan x="27px"> </tspan><tspan x="36px"> </tspan><tspan x="45px"> </tspan><tspan x="54px"> </tspan><tspan x="63px"> </tspan><tspan x="72px"> </tspan><tspan x="81px"> </tspan><tspan x="90px"> </tspan><tspan x="99px"> </tspan><tspan x="108px"> </tspan><tspan x="117px" class="fc0">D</tspan><tspan x="126px" class="fc0">u</tspan><tspan x="135px" class="fc0">i</tspan><tspan x="144px" class="fc0">s</tspan><tspan x="153px" class="fc0"> </tspan><tspan x="162px" class="fc0">a</tspan><tspan x="171px" class="fc0">u</tspan><tspan x="180px" class="fc0">t</tspan><tspan x="189px" class="fc0">e</tspan><tspan x="198px" class="fc0"> </tspan><tspan x="207px" class="fc0">i</tspan><tspan x="216px" class="fc0">r</tspan><tspan x="225px" class="fc0">u</tspan><tspan x="234px" class="fc0">r</tspan><tspan x="243px" class="fc0">e</tspan><tspan x="252px" class="fc0"> </tspan><tspan x="261px" class="fc0">d</tspan><tspan x="270px" class="fc0">o</tspan><tspan x="279px" class="fc0">l</tspan><tspan x="288px" class="fc0">o</tspan><tspan x="297px" class="fc0">r</tspan><tspan x="306px" class="fc0"> </tspan><tspan x="315px" class="fc0">i</tspan><tspan x="324px" class="fc0">n</tspan><tspan x="333px" class="fc0"> </tspan><tspan x="342px" class="fc0">r</tspan><tspan x="351px" class="fc0">e</tspan><tspan x="360px" class="fc0">p</tspan><tspan x="369px" class="fc0">r</tspan><tspan x="378px" class="fc0">e</tspan><tspan x="387px" class="fc0">h</tspan><tspan x="396px" class="fc0">e</tspan><tspan x="405px" class="fc0">n</tspan><tspan x="414px" class="fc0">d</tspan><tspan x="423px" class="fc0">e</tspan><tspan x="432px" class="fc0">r</tspan><tspan x="441px" class="fc0">i</tspan><tspan x="450px" class="fc0">t</tspan><tspan x="459px" class="fc0"> </tspan><tspan x="468px" class="fc0">i</tspan><tspan x="477px" class="fc0">n</tspan><tspan x="486px" class="fc0"> </tspan><tspan x="495px" class="fc0">v</tspan><tspan x="504px" class="fc0">o</tspan><tspan x="513px" class="fc0">l</tspan><tspan x="522px" class="fc0">u</tspan><tspan x="531px" class="fc0">p</tspan><tspan x="540px" class="fc0">t</tspan><tspan x="549px" class="fc0">a</tspan><tspan x="558px" class="fc0">t</tspan><tspan x="567px" class="fc0">e</tspan><tspan x="576px" class="fc0"> </tspan><tspan x="585px" class="fc0">v</tspan><tspan x="594px" class="fc0">e</tspan><tspan x="603px" class="fc0">l</tspan><tspan x="612px" class="fc0">i</tspan><tspan x="621px" class="fc0">t</tspan><tspan x="630px" class="fc0"> </tspan><tspan x="639px" class="fc0">e</tspan><tspan x="648px" class="fc0">s</tspan><tspan x="657px" class="fc0">s</tspan><tspan x="666px" class="fc0">e</tspan><tspan x="675px" class="fc0"> </tspan><tspan x="684px" class="fc0">c</tspan><tspan x="693px" class="fc0">i</tspan><tspan x="702px" class="fc0">l</tspan><tspan x="711px" class="fc0">l</tspan><tspan x="720px" class="fc0">u</tspan><tspan x="729px" class="fc0">m</tspan><tspan x="738px" class="fc0"> </tspan><tspan x="747px" class="fc0">d</tspan><tspan x="756px" class="fc0">o</tspan><tspan x="765px" class="fc0">l</tspan><tspan x="774px" class="fc0">o</tspan><tspan x="783px" class="fc0">r</tspan><tspan x="792px" class="fc0">e</tspan><tspan x="801px" class="fc0"> </tspan><tspan x="810px" class="fc0">e</tspan><tspan x="819px" class="fc0">u</tspan></text>
<text x="18px" y="188px"><tspan x="18px"> </tspan><tspan x="27px"> </tspan><tspan x="36px"> </tspan><tspan x="45px"> </tspan><tspan x="54px"> </tspan><tspan x="63px"> </tspan><tspan x="72px"> </tspan><tspan x="81px"> </tspan><tspan x="90px"> </tspan><tspan x="99px"> </tspan><tspan x="108px"> </tspan><tspan x="117px" class="fc0">f</tspan><tspan x="126px" class="fc0">u</tspan><tspan x="135px" class="fc0">g</tspan><tspan x="144px" class="fc0">i</tspan><tspan x="153px" class="fc0">a</tspan><tspan x="162px" class="fc0">t</tspan><tspan x="171px" class="fc0"> </tspan><tspan x="180px" class="fc0">n</tspan><tspan x="189px" class="fc0">u</tspan><tspan x="198px" class="fc0">l</tspan><tspan x="207px" class="fc0">l</tspan><tspan x="216px" class="fc0">a</tspan><tspan x="225px" class="fc0"> </tspan><tspan x="234px" class="fc0">p</tspan><tspan x="243px" class="fc0">a</tspan><tspan x="252px" class="fc0">r</tspan><tspan x="261px" class="fc0">i</tspan><tspan x="270px" class="fc0">a</tspan><tspan x="279px" class="fc0">t</tspan><tspan x="288px" class="fc0">u</tspan><tspan x="297px" class="fc0">r</tspan><tspan x="306px" class="fc0">.</tspan><tspan x="315px" class="fc0"> </tspan><tspan x="324px" class="fc0">E</tspan><tspan x="333px" class="fc0">x</tspan><tspan x="342px" class="fc0">c</tspan><tspan x="351px" class="fc0">e</tspan><tspan x="360px" class="fc0">p</tspan><tspan x="369px" class="fc0">t</tspan><tspan x="378px" class="fc0">e</tspan><tspan x="387px" class="fc0">u</tspan><tspan x="396px" class="fc0">r</tspan><tspan x="405px" class="fc0"> </tspan><tspan x="414px" class="fc0">s</tspan><tspan x="423px" class="fc0">i</tspan><tspan x="432px" class="fc0">n</tspan><tspan x="441px" class="fc0">t</tspan><tspan x="450px" class="fc0"> </tspan><tspan x="459px" class="fc0">o</tspan><tspan x="468px" class="fc0">c</tspan><tspan x="477px" class="fc0">c</tspan><tspan x="486px" class="fc0">a</tspan><tspan x="495px" class="fc0">e</tspan><tspan x="504px" class="fc0">c</tspan><tspan x="513px" class="fc0">a</tspan><tspan x="522px" class="fc0">t</tspan><tspan x="531px" class="fc0"> </tspan><tspan x="540px" class="fc0">c</tspan><tspan x="549px" class="fc0">u</tspan><tspan x="558px" class="fc0">p</tspan><tspan x="567px" class="fc0">i</tspan><tspan x="576px" class="fc0">d</tspan><tspan x="585px" class="fc0">a</tspan><tspan x="594px" class="fc0">t</tspan><tspan x="603px" class="fc0">a</tspan><tspan x="612px" class="fc0">t</tspan><tspan x="621px" class="fc0"> </tspan><tspan x="630px" class="fc0">n</tspan><tspan x="639px" class="fc0">o</tspan><tspan x="648px" class="fc0">n</tspan><tspan x="657px" class="fc0"> </tspan><tspan x="666px" class="fc0">p</tspan><tspan x="675px" class="fc0">r</tspan><tspan x="684px" class="fc0">o</tspan><tspan x="693px" class="fc0">i</tspan><tspan x="702px" class="fc0">d</tspan><tspan x="711px" class="fc0">e</tspan><tspan x="720px" class="fc0">n</tspan><tspan x="729px" class="fc0">t</tspan><tspan x="738px" class="fc0">,</tspan><tspan x="747px" class="fc0"> </tspan><tspan x="756px" class="fc0">s</tspan><tspan x="765px" class="fc0">u</tspan><tspan x="774px" class="fc0">n</tspan><tspan x="783px" class="fc0">t</tspan><tspan x="792px" class="fc0"> </tspan><tspan x="801px" class="fc0">i</tspan><tspan x="810px" class="fc0">n</tspan></text>
<text x="18px" y="208px"><tspan x="18px"> </tspan><tspan x="27px"> </tspan><tspan x="36px"> </tspan><tspan x="45px"> </tspan><tspan x="54px"> </tspan><tspan x="63px"> </tspan><tspan x="72px"> </tspan><tspan x="81px"> </tspan><tspan x="90px"> </tspan><tspan x="99px"> </tspan><tspan x="108px"> </tspan><tspan x="117px" class="fc0">c</tspan><tspan x="126px" class="fc0">u</tspan><tspan x="135px" class="fc0">l</tspan><tspan x="144px" class="fc0">p</tspan><tspan x="153px" class="fc0">a</tspan><tspan x="162px" class="fc0"> </tspan><tspan x="171px" class="fc0">q</tspan><tspan x="180px" class="fc0">u</tspan><tspan x="189px" class="fc0">i</tspan><tspan x="198px" class="fc0"> </tspan><tspan x="207px" class="fc0">o</tspan><tspan x="216px" class="fc0">f</tspan><tspan x="225px" class="fc0">f</tspan><tspan x="234px" class="fc0">i</tspan><tspan x="243px" class="fc0">c</tspan><tspan x="252px" class="fc0">i</tspan><tspan x="261px" class="fc0">a</tspan><tspan x="270px" class="fc0"> </tspan><tspan x="279px" class="fc0">d</tspan><tspan x="288px" class="fc0">e</tspan><tspan x="297px" class="fc0">s</tspan><tspan x="306px" class="fc0">e</tspan><tspan x="315px" class="fc0">r</tspan><tspan x="324px" class="fc0">u</tspan><tspan x="333px" class="fc0">n</tspan><tspan x="342px" class="fc0">t</tspan><tspan x="351px" class="fc0"> </tspan><tspan x="360px" class="fc0">m</tspan><tspan x="369px" class="fc0">o</tspan><tspan x="378px" class="fc0">l</tspan><tspan x="387px" class="fc0">l</tspan><tspan x="396px" class="fc0">i</tspan><tspan x="405px" class="fc0">t</tspan><tspan x="414px" class="fc0"> </tspan><tspan x="423px" class="fc0">a</tspan><tspan x="432px" class="fc0">n</tspan><tspan x="441px" class="fc0">i</tspan><tspan x="450px" class="fc0">m</tspan><tspan x="459px" class="fc0"> </tspan><tspan x="468px" class="fc0">i</tspan><tspan x="477px" class="fc0">d</tspan><tspan x="486px" class="fc0"> </tspan><tspan x="495px" class="fc0">e</tspan><tspan x="504px" class="fc0">s</tspan><tspan x="513px" class="fc0">t</tspan><tspan x="522px" class="fc0"> </tspan><tspan x="531px" class="fc0">l</tspan><tspan x="540px" class="fc0">a</tspan><tspan x="549px" class="fc0">b</tspan><tspan x="558px" class="fc0">o</tspan><tspan x="567px" class="fc0">r</tspan><tspan x="576px" class="fc0">u</tspan><tspan x="585px" class="fc0">m</tspan><tspan x="594px" class="fc0">.</tspan></text>
<text x="18px" y="248px"><tspan x="18px"> </tspan><tspan x="27px"> </tspan><tspan x="36px"> </tspan><tspan x="45px"> </tspan><tspan x="54px"> </tspan><tspan x="63px"> </tspan><tspan x="72px"> </tspan><tspan x="81px"> </tspan><tspan x="90px"> </tspan><tspan x="99px"> </tspan><tspan x="108px"> </tspan><tspan x="117px" class="fc0">S</tspan><tspan x="126px" class="fc0">e</tspan><tspan x="135px" class="fc0">d</tspan><tspan x="144px" class="fc0"> </tspan><tspan x="153px" class="fc0">u</tspan><tspan x="162px" class="fc0">t</tspan><tspan x="171px" class="fc0"> </tspan><tspan x="180px" class="fc0">p</tspan><tspan x="189px" class="fc1">╭</tspan><tspan x="198px" class="fc1">─</tspan><tspan x="207px" class="bold fc2"> </tspan><tspan x="216px" class="bold fc2">s</tspan><tspan x="225px" class="bold fc2">t</tspan><tspan x="234px" class="bold fc2">a</tspan><tspan x="243px" class="bold fc2">t</tspan><tspan x="252px" class="bold fc2">s</tspan><tspan x="261px" class="bold fc2"> </tspan><tspan x="270px" class="fc1">─</tspan><tspan x="279px" class="fc1">─</tspan><tspan x="288px" class="fc1">─</tspan><tspan x="297px" class="fc1">─</tspan><tspan x="306px" class="fc1">─</tspan><tspan x="315px" class="fc1">─</tspan><tspan x="324px" class="fc1">─</tspan><tspan x="333px" class="fc1">─</tspan><tspan x="342px" class="fc1">─</tspan><tspan x="351px" class="fc1">─</tspan><tspan x="360px" class="fc1">─</tspan><tspan x="369px" class="fc1">─</tspan><tspan x="378px" class="fc1">─</tspan><tspan x="387px" class="fc1">─</tspan><tspan x="396px" class="fc1">─</tspan><tspan x="405px" class="fc1">─</tspan><tspan x="414px" class="fc1">─</tspan><tspan x="423px" class="fc1">─</tspan><tspan x="432px" class="fc1">─</tspan><tspan x="441px" class="fc1">─</tspan><tspan x="450px" class="fc1">─</tspan><tspan x="459px" class="fc1">─</tspan><tspan x="468px" class="fc1">─</tspan><tspan x="477px" class="fc1">─</tspan><tspan x="486px" class="fc1">─</tspan><tspan x="495px" class="fc1">─</tspan><tspan x="504px" class="fc1">─</tspan><tspan x="513px" class="fc1">─</tspan><tspan x="522px" class="fc1">─</tspan><tspan x="531px" class="fc1">─</tspan><tspan x="540px" class="fc1">─</tspan><tspan x="549px" class="fc1">─</tspan><tspan x="558px" class="fc1">─</tspan><tspan x="567px" class="fc1">─</tspan><tspan x="576px" class="fc1">─</tspan><tspan x="585px" class="fc1">─</tspan><tspan x="594px" class="fc1">─</tspan><tspan x="603px" class="fc1">─</tspan><tspan x="612px" class="fc1">─</tspan><tspan x="621px" class="fc1">─</tspan><tspan x="630px" class="fc1">─</tspan><tspan x="639px" class="fc1">─</tspan><tspan x="648px" class="fc1">─</tspan><tspan x="657px" class="fc1">─</tspan><tspan x="666px" class="fc1">─</tspan><tspan x="675px" class="fc1">─</tspan><tspan x="684px" class="fc1">─</tspan><tspan x="693px" class="fc1">─</tspan><tspan x="702px" class="fc1">─</tspan><tspan x="711px" class="fc1">─</tspan><tspan x="720px" class="fc1">─</tspan><tspan x="729px" class="fc1">─</tspan><tspan x="738px" class="fc1">─</tspan><tspan x="747px" class="fc1">─</tspan><tspan x="756px" class="fc1">─</tspan><tspan x="765px" class="fc1">─</tspan><tspan x="774px" class="fc1">╮</tspan></text>
<text x="18px" y="268px"><tspan x="18px"> </tspan><tspan x="27px"> </tspan><tspan x="36px"> </tspan><tspan x="45px"> </tspan><tspan x="54px"> </tspan><tspan x="63px"> </tspan><tspan x="72px"> </tspan><tspan x="81px"> </tspan><tspan x="90px"> </tspan><tspan x="99px"> </tspan><tspan x="108px"> </tspan><tspan x="117px" class="fc0">d</tspan><tspan x="126px" class="fc0">o</tspan><tspan x="135px" class="fc0">l</tspan><tspan x="144px" class="fc0">o</tspan><tspan x="153px" class="fc0">r</tspan><tspan x="162px" class="fc0">e</tspan><tspan x="171px" class="fc0">m</tspan><tspan x="180px" class="fc0">q</tspan><tspan x="189px" class="fc1">│</tspan><tspan x="198px" class="fc0"> </tspan><tspan x="207px" class="fc0"> </tspan><tspan x="216px" class="fc0"> </tspan><tspan x="225px" class="fc0"> </tspan><tspan x="234px" class="fc0"> </tspan><tspan x="243px" class="fc0"> </tspan><tspan x="252px" class="fc0"> </tspan><tspan x="261px" class="fc0"> </tspan><tspan x="270px" class="fc0"> </tspan><tspan x="279px" class="fc0"> </tspan><tspan x="288px" class="fc0"> </tspan><tspan x="297px" class="fc0"> </tspan><tspan x="306px" class="fc0"> </tspan><tspan x="315px" class="fc0"> </tspan><tspan x="324px" class="fc0"> </tspan><tspan x="333px" class="fc0"> </tspan><tspan x="342px" class="fc0"> </tspan><tspan x="351px" class="fc0"> </tspan><tspan x="360px" class="fc0"> </tspan><tspan x="369px" class="fc0"> </tspan><tspan x="378px" class="fc0"> </tspan><tspan x="387px" class="fc0"> </tspan><tspan x="396px" class="fc0"> </tspan><tspan x="405px" class="fc0"> </tspan><tspan x="414px" class="fc0"> </tspan><tspan x="423px" class="fc0"> </tspan><tspan x="432px" class="fc0"> </tspan><tspan x="441px" class="fc0"> </tspan><tspan x="450px" class="fc0"> </tspan><tspan x="459px" class="fc0"> </tspan><tspan x="468px" class="fc0"> </tspan><tspan x="477px" class="fc0"> </tspan><tspan x="486px" class="fc0"> </tspan><tspan x="495px" class="fc0"> </tspan><tspan x="504px" class="fc0"> </tspan><tspan x="513px" class="fc0"> </tspan><tspan x="522px" class="fc0"> </tspan><tspan x="531px" class="fc0"> </tspan><tspan x="540px" class="fc0"> </tspan><tspan x="549px" class="fc0"> </tspan><tspan x="558px" class="fc0"> </tspan><tspan x="567px" class="fc0"> </tspan><tspan x="576px" class="fc0"> </tspan><tspan x="585px" class="fc0"> </tspan><tspan x="594px" class="fc0"> </tspan><tspan x="603px" class="fc0"> </tspan><tspan x="612px" class="fc0"> </tspan><tspan x="621px" class="fc0"> </tspan><tspan x="630px" class="fc0"> </tspan><tspan x="639px" class="fc0"> </tspan><tspan x="648px" class="fc0"> </tspan><tspan x="657px" class="fc0"> </tspan><tspan x="666px" class="fc0"> </tspan><tspan x="675px" class="fc0"> </tspan><tspan x="684px" class="fc0"> </tspan><tspan x="693px" class="fc0"> </tspan><tspan x="702px" class="fc0"> </tspan><tspan x="711px" class="fc0"> </tspan><tspan x="720px" class="fc0"> </tspan><tspan x="729px" class="fc0"> </tspan><tspan x="738px" class="fc0"> </tspan><tspan x="747px" class="fc0"> </tspan><tspan x="756px" class="fc0"> </tspan><tspan x="765px" class="fc0"> </tspan><tspan x="774px" class="fc1">│</tspan><tspan x="783px" class="fc0">e</tspan></text>
<text x="18px" y="288px"><tspan x="18px"> </tspan><tspan x="27px"> </tspan><tspan x="36px"> </tspan><tspan x="45px"> </tspan><tspan x="54px"> </tspan><tspan x="63px"> </tspan><tspan x="72px"> </tspan><tspan x="81px"> </tspan><tspan x="90px"> </tspan><tspan x="99px"> </tspan><tspan x="108px"> </tspan><tspan x="117px" class="fc0">v</tspan><tspan x="126px" class="fc0">e</tspan><tspan x="135px" class="fc0">r</tspan><tspan x="144px" class="fc0">i</tspan><tspan x="153px" class="fc0">t</tspan><tspan x="162px" class="fc0">a</tspan><tspan x="171px" class="fc0">t</tspan><tspan x="180px" class="fc0">i</tspan><tspan x="189px" class="fc1">│</tspan><tspan x="198px" class="fc3"> </tspan><tspan x="207px" class="fc3"> </tspan><tspan x="216px" class="fc3">w</tspan><tspan x="225px" class="fc3">o</tspan><tspan x="234px" class="fc3">r</tspan><tspan x="243px" class="fc3">d</tspan><tspan x="252px" class="fc3">s</tspan><tspan x="261px" class="fc3"> </tspan><tspan x="270px" class="fc3"> </tspan><tspan x="279px" class="fc3"> </tspan><tspan x="288px" class="fc3"> </tspan><tspan x="297px" class="fc3"> </tspan><tspan x="306px" class="fc3"> </tspan><tspan x="315px" class="fc3"> </tspan><tspan x="324px" class="fc0">1</tspan><tspan x="333px" class="fc0">0</tspan><tspan x="342px" class="fc0">0</tspan><tspan x="351px" class="fc0"> </tspan><tspan x="360px" class="fc0"> </tspan><tspan x="369px" class="fc0"> </tspan><tspan x="378px" class="fc0"> </tspan><tspan x="387px" class="fc0"> </tspan><tspan x="396px" class="fc0"> </tspan><tspan x="405px" class="fc0"> </tspan><tspan x="414px" class="fc0"> </tspan><tspan x="423px" class="fc0"> </tspan><tspan x="432px" class="fc0"> </tspan><tspan x="441px" class="fc0"> </tspan><tspan x="450px" class="fc0"> </tspan><tspan x="459px" class="fc0"> </tspan><tspan x="468px" class="fc0"> </tspan><tspan x="477px" class="fc0"> </tspan><tspan x="486px" class="fc0"> </tspan><tspan x="495px" class="fc0"> </tspan><tspan x="504px" class="fc0"> </tspan><tspan x="513px" class="fc0"> </tspan><tspan x="522px" class="fc0"> </tspan><tspan x="531px" class="fc0"> </tspan><tspan x="540px" class="fc0"> </tspan><tspan x="549px" class="fc0"> </tspan><tspan x="558px" class="fc0"> </tspan><tspan x="567px" class="fc0"> </tspan><tspan x="576px" class="fc0"> </tspan><tspan x="585px" class="fc0"> </tspan><tspan x="594px" class="fc0"> </tspan><tspan x="603px" class="fc0"> </tspan><tspan x="612px" class="fc0"> </tspan><tspan x="621px" class="fc0"> </tspan><tspan x="630px" class="fc0"> </tspan><tspan x="639px" class="fc0"> </tspan><tspan x="648px" class="fc0"> </tspan><tspan x="657px" class="fc0"> </tspan><tspan x="666px" class="fc0"> </tspan><tspan x="675px" class="fc0"> </tspan><tspan x="684px" class="fc0"> </tspan><tspan x="693px" class="fc0"> </tspan><tspan x="702px" class="fc0"> </tspan><tspan x="711px" class="fc0"> </tspan><tspan x="720px" class="fc0"> </tspan><tspan x="729px" class="fc0"> </tspan><tspan x="738px" class="fc0"> </tspan><tspan x="747px" class="fc0"> </tspan><tspan x="756px" class="fc0"> </tspan><tspan x="765px" class="fc0"> </tspan><tspan x="774px" class="fc1">│</tspan></text>
<text x="18px" y="308px"><tspan x="18px"> </tspan><tspan x="27px"> </tspan><tspan x="36px"> </tspan><tspan x="45px"> </tspan><tspan x="54px"> </tspan><tspan x="63px"> </tspan><tspan x="72px"> </tspan><tspan x="81px"> </tspan><tspan x="90px"> </tspan><tspan x="99px"> </tspan><tspan x="108px"> </tspan><tspan x="117px"> </tspan><tspan x="126px"> </tspan><tspan x="135px"> </tspan><tspan x="144px"> </tspan><tspan x="153px"> </tspan><tspan x="162px"> </tspan><tspan x="171px"> </tspan><tspan x="180px"> </tspan><tspan x="189px" class="fc1">│</tspan><tspan x="198px" class="fc3"> </tspan><tspan x="207px" class="fc3"> </tspan><tspan x="216px" class="fc3">c</tspan><tspan x="225px" class="fc3">h</tspan><tspan x="234px" class="fc3">a</tspan><tspan x="243px" class="fc3">r</tspan><tspan x="252px" class="fc3">a</tspan><tspan x="261px" class="fc3">c</tspan><tspan x="270px" class="fc3">t</tspan><tspan x="279px" class="fc3">e</tspan><tspan x="288px" class="fc3">r</tspan><tspan x="297px" class="fc3">s</tspan><tspan x="306px" class="fc3"> </tspan><tspan x="315px" class="fc3"> </tspan><tspan x="324px" class="fc0">6</tspan><tspan x="333px" class="fc0">5</tspan><tspan x="342px" class="fc0">9</tspan><tspan x="351px" class="fc0"> </tspan><tspan x="360px" class="fc0"> </tspan><tspan x="369px" class="fc0"> </tspan><tspan x="378px" class="fc0"> </tspan><tspan x="387px" class="fc0"> </tspan><tspan x="396px" class="fc0"> </tspan><tspan x="405px" class="fc0"> </tspan><tspan x="414px" class="fc0"> </tspan><tspan x="423px" class="fc0"> </tspan><tspan x="432px" class="fc0"> </tspan><tspan x="441px" class="fc0"> </tspan><tspan x="450px" class="fc0"> </tspan><tspan x="459px" class="fc0"> </tspan><tspan x="468px" class="fc0"> </tspan><tspan x="477px" class="fc0"> </tspan><tspan x="486px" class="fc0"> </tspan><tspan x="495px" class="fc0"> </tspan><tspan x="504px" class="fc0"> </tspan><tspan x="513px" class="fc0"> </tspan><tspan x="522px" class="fc0"> </tspan><tspan x="531px" class="fc0"> </tspan><tspan x="540px" class="fc0"> </tspan><tspan x="549px" class="fc0"> </tspan><tspan x="558px" class="fc0"> </tspan><tspan x="567px" class="fc0"> </tspan><tspan x="576px" class="fc0"> </tspan><tspan x="585px" class="fc0"> </tspan><tspan x="594px" class="fc0"> </tspan><tspan x="603px" class="fc0"> </tspan><tspan x="612px" class="fc0"> </tspan><tspan x="621px" class="fc0"> </tspan><tspan x="630px" class="fc0"> </tspan><tspan x="639px" class="fc0"> </tspan><tspan x="648px" class="fc0"> </tspan><tspan x="657px" class="fc0"> </tspan><tspan x="666px" class="fc0"> </tspan><tspan x="675px" class="fc0"> </tspan><tspan x="684px" class="fc0"> </tspan><tspan x="693px" class="fc0"> </tspan><tspan x="702px" class="fc0"> </tspan><tspan x="711px" class="fc0"> </tspan><tspan x="720px" class="fc0"> </tspan><tspan x="729px" class="fc0"> </tspan><tspan x="738px" class="fc0"> </tspan><tspan x="747px" class="fc0"> </tspan><tspan x="756px" class="fc0"> </tspan><tspan x="765px" class="fc0"> </tspan><tspan x="774px" class="fc1">│</tspan></text>
<text x="18px" y="328px"><tspan x="18px"> </tspan><tspan x="27px"> </tspan><tspan x="36px"> </tspan><tspan x="45px"> </tspan><tspan x="54px"> </tspan><tspan x="63px"> </tspan><tspan x="72px"> </tspan><tspan x="81px"> </tspan><tspan x="90px"> </tspan><tspan x="99px"> </tspan><tspan x="108px"> </tspan><tspan x="117px"> </tspan><tspan x="126px"> </tspan><tspan x="135px"> </tspan><tspan x="144px"> </tspan><tspan x="153px"> </tspan><tspan x="162px"> </tspan><tspan x="171px"> </tspan><tspan x="180px"> </tspan><tspan x="189px" class="fc1">│</tspan><tspan x="198px" class="fc3"> </tspan><tspan x="207px" class="fc3"> </tspan><tspan x="216px" class="fc3">p</tspan><tspan x="225px" class="fc3">a</tspan><tspan x="234px" class="fc3">g</tspan><tspan x="243px" class="fc3">e</tspan><tspan x="252px" class="fc3">s</tspan><tspan x="261px" class="fc3"> </tspan><tspan x="270px" class="fc3"> </tspan><tspan x="279px" class="fc3"> </tspan><tspan x="288px" class="fc3"> </tspan><tspan x="297px" class="fc3"> </tspan><tspan x="306px" class="fc3"> </tspan><tspan x="315px" class="fc3"> </tspan><tspan x="324px" class="fc0">1</tspan><tspan x="333px" class="fc0"> </tspan><tspan x="342px" class="fc0"> </tspan><tspan x="351px" class="fc0"> </tspan><tspan x="360px" class="fc0"> </tspan><tspan x="369px" class="fc0"> </tspan><tspan x="378px" class="fc0"> </tspan><tspan x="387px" class="fc0"> </tspan><tspan x="396px" class="fc0"> </tspan><tspan x="405px" class="fc0"> </tspan><tspan x="414px" class="fc0"> </tspan><tspan x="423px" class="fc0"> </tspan><tspan x="432px" class="fc0"> </tspan><tspan x="441px" class="fc0"> </tspan><tspan x="450px" class="fc0"> </tspan><tspan x="459px" class="fc0"> </tspan><tspan x="468px" class="fc0"> </tspan><tspan x="477px" class="fc0"> </tspan><tspan x="486px" class="fc0"> </tspan><tspan x="495px" class="fc0"> </tspan><tspan x="504px" class="fc0"> </tspan><tspan x="513px" class="fc0"> </tspan><tspan x="522px" class="fc0"> </tspan><tspan x="531px" class="fc0"> </tspan><tspan x="540px" class="fc0"> </tspan><tspan x="549px" class="fc0"> </tspan><tspan x="558px" class="fc0"> </tspan><tspan x="567px" class="fc0"> </tspan><tspan x="576px" class="fc0"> </tspan><tspan x="585px" class="fc0"> </tspan><tspan x="594px" class="fc0"> </tspan><tspan x="603px" class="fc0"> </tspan><tspan x="612px" class="fc0"> </tspan><tspan x="621px" class="fc0"> </tspan><tspan x="630px" class="fc0"> </tspan><tspan x="639px" class="fc0"> </tspan><tspan x="648px" class="fc0"> </tspan><tspan x="657px" class="fc0"> </tspan><tspan x="666px" class="fc0"> </tspan><tspan x="675px" class="fc0"> </tspan><tspan x="684px" class="fc0"> </tspan><tspan x="693px" class="fc0"> </tspan><tspan x="702px" class="fc0"> </tspan><tspan x="711px" class="fc0"> </tspan><tspan x="720px" class="fc0"> </tspan><tspan x="729px" class="fc0"> </tspan><tspan x="738px" class="fc0"> </tspan><tspan x="747px" class="fc0"> </tspan><tspan x="756px" class="fc0"> </tspan><tspan x="765px" class="fc0"> </tspan><tspan x="774px" class="fc1">│</tspan></text>
<text x="18px" y="348px"><tspan x="18px"> </tspan><tspan x="27px"> </tspan><tspan x="36px"> </tspan><tspan x="45px"> </tspan><tspan x="54px"> </tspan><tspan x="63px"> </tspan><tspan x="72px"> </tspan><tspan x="81px"> </tspan><tspan x="90px"> </tspan><tspan x="99px"> </tspan><tspan x="108px"> </tspan><tspan x="117px"> </tspan><tspan x="126px"> </tspan><tspan x="135px"> </tspan><tspan x="144px"> </tspan><tspan x="153px"> </tspan><tspan x="162px"> </tspan><tspan x="171px"> </tspan><tspan x="180px"> </tspan><tspan x="189px" class="fc1">│</tspan><tspan x="198px" class="fc3"> </tspan><tspan x="207px" class="fc3"> </tspan><tspan x="216px" class="fc3">r</tspan><tspan x="225px" class="fc3">e</tspan><tspan x="234px" class="fc3">a</tspan><tspan x="243px" class="fc3">d</tspan><tspan x="252px" class="fc3"> </tspan><tspan x="261px" class="fc3">t</tspan><tspan x="270px" class="fc3">i</tspan><tspan x="279px" class="fc3">m</tspan><tspan x="288px" class="fc3">e</tspan><tspan x="297px" class="fc3"> </tspan><tspan x="306px" class="fc3"> </tspan><tspan x="315px" class="fc3"> </tspan><tspan x="324px" class="fc0">~</tspan><tspan x="333px" class="fc0">1</tspan><tspan x="342px" class="fc0"> </tspan><tspan x="351px" class="fc0">m</tspan><tspan x="360px" class="fc0">i</tspan><tspan x="369px" class="fc0">n</tspan><tspan x="378px" class="fc0"> </tspan><tspan x="387px" class="fc0"> </tspan><tspan x="396px" class="fc0"> </tspan><tspan x="405px" class="fc0"> </tspan><tspan x="414px" class="fc0"> </tspan><tspan x="423px" class="fc0"> </tspan><tspan x="432px" class="fc0"> </tspan><tspan x="441px" class="fc0"> </tspan><tspan x="450px" class="fc0"> </tspan><tspan x="459px" class="fc0"> </tspan><tspan x="468px" class="fc0"> </tspan><tspan x="477px" class="fc0"> </tspan><tspan x="486px" class="fc0"> </tspan><tspan x="495px" class="fc0"> </tspan><tspan x="504px" class="fc0"> </tspan><tspan x="513px" class="fc0"> </tspan><tspan x="522px" class="fc0"> </tspan><tspan x="531px" class="fc0"> </tspan><tspan x="540px" class="fc0"> </tspan><tspan x="549px" class="fc0"> </tspan><tspan x="558px" class="fc0"> </tspan><tspan x="567px" class="fc0"> </tspan><tspan x="576px" class="fc0"> </tspan><tspan x="585px" class="fc0"> </tspan><tspan x="594px" class="fc0"> </tspan><tspan x="603px" class="fc0"> </tspan><tspan x="612px" class="fc0"> </tspan><tspan x="621px" class="fc0"> </tspan><tspan x="630px" class="fc0"> </tspan><tspan x="639px" class="fc0"> </tspan><tspan x="648px" class="fc0"> </tspan><tspan x="657px" class="fc0"> </tspan><tspan x="666px" class="fc0"> </tspan><tspan x="675px" class="fc0"> </tspan><tspan x="684px" class="fc0"> </tspan><tspan x="693px" class="fc0"> </tspan><tspan x="702px" class="fc0"> </tspan><tspan x="711px" class="fc0"> </tspan><tspan x="720px" class="fc0"> </tspan><tspan x="729px" class="fc0"> </tspan><tspan x="738px" class="fc0"> </tspan><tspan x="747px" class="fc0"> </tspan><tspan x="756px" class="fc0"> </tspan><tspan x="765px" class="fc0"> </tspan><tspan x="774px" class="fc1">│</tspan></text>
<text x="18px" y="368px"><tspan x="18px"> </tspan><tspan x="27px"> </tspan><tspan x="36px"> </tspan><tspan x="45px"> </tspan><tspan x="54px"> </tspan><tspan x="63px"> </tspan><tspan x="72px"> </tspan><tspan x="81px"> </tspan><tspan x="90px"> </tspan><tspan x="99px"> </tspan><tspan x="108px"> </tspan><tspan x="117px"> </tspan><tspan x="126px"> </tspan><tspan x="135px"> </tspan><tspan x="144px"> </tspan><tspan x="153px"> </tspan><tspan x="162px"> </tspan><tspan x="171px"> </tspan><tspan x="180px"> </tspan><tspan x="189px" class="fc1">│</tspan><tspan x="198px" class="fc0"> </tspan><tspan x="207px" class="fc0"> </tspan><tspan x="216px" class="fc0"> </tspan><tspan x="225px" class="fc0"> </tspan><tspan x="234px" class="fc0"> </tspan><tspan x="243px" class="fc0"> </tspan><tspan x="252px" class="fc0"> </tspan><tspan x="261px" class="fc0"> </tspan><tspan x="270px" class="fc0"> </tspan><tspan x="279px" class="fc0"> </tspan><tspan x="288px" class="fc0"> </tspan><tspan x="297px" class="fc0"> </tspan><tspan x="306px" class="fc0"> </tspan><tspan x="315px" class="fc0"> </tspan><tspan x="324px" class="fc0"> </tspan><tspan x="333px" class="fc0"> </tspan><tspan x="342px" class="fc0"> </tspan><tspan x="351px" class="fc0"> </tspan><tspan x="360px" class="fc0"> </tspan><tspan x="369px" class="fc0"> </tspan><tspan x="378px" class="fc0"> </tspan><tspan x="387px" class="fc0"> </tspan><tspan x="396px" class="fc0"> </tspan><tspan x="405px" class="fc0"> </tspan><tspan x="414px" class="fc0"> </tspan><tspan x="423px" class="fc0"> </tspan><tspan x="432px" class="fc0"> </tspan><tspan x="441px" class="fc0"> </tspan><tspan x="450px" class="fc0"> </tspan><tspan x="459px" class="fc0"> </tspan><tspan x="468px" class="fc0"> </tspan><tspan x="477px" class="fc0"> </tspan><tspan x="486px" class="fc0"> </tspan><tspan x="495px" class="fc0"> </tspan><tspan x="504px" class="fc0"> </tspan><tspan x="513px" class="fc0"> </tspan><tspan x="522px" class="fc0"> </tspan><tspan x="531px" class="fc0"> </tspan><tspan x="540px" class="fc0"> </tspan><tspan x="549px" class="fc0"> </tspan><tspan x="558px" class="fc0"> </tspan><tspan x="567px" class="fc0"> </tspan><tspan x="576px" class="fc0"> </tspan><tspan x="585px" class="fc0"> </tspan><tspan x="594px" class="fc0"> </tspan><tspan x="603px" class="fc0"> </tspan><tspan x="612px" class="fc0"> </tspan><tspan x="621px" class="fc0"> </tspan><tspan x="630px" class="fc0"> </tspan><tspan x="639px" class="fc0"> </tspan><tspan x="648px" class="fc0"> </tspan><tspan x="657px" class="fc0"> </tspan><tspan x="666px" class="fc0"> </tspan><tspan x="675px" class="fc0"> </tspan><tspan x="684px" class="fc0"> </tspan><tspan x="693px" class="fc0"> </tspan><tspan x="702px" class="fc0"> </tspan><tspan x="711px" class="fc0"> </tspan><tspan x="720px" class="fc0"> </tspan><tspan x="729px" class="fc0"> </tspan><tspan x="738px" class="fc0"> </tspan><tspan x="747px" class="fc0"> </tspan><tspan x="756px" class="fc0"> </tspan><tspan x="765px" class="fc0"> </tspan><tspan x="774px" class="fc1">│</tspan></text>
<text x="18px" y="388px"><tspan x="18px"> </tspan><tspan x="27px"> </tspan><tspan x="36px"> </tspan><tspan x="45px"> </tspan><tspan x="54px"> </tspan><tspan x="63px"> </tspan><tspan x="72px"> </tspan><tspan x="81px"> </tspan><tspan x="90px"> </tspan><tspan x="99px"> </tspan><tspan x="108px"> </tspan><tspan x="117px"> </tspan><tspan x="126px"> </tspan><tspan x="135px"> </tspan><tspan x="144px"> </tspan><tspan x="153px"> </tspan><tspan x="162px"> </tspan><tspan x="171px"> </tspan><tspan x="180px"> </tspan><tspan x="189px" class="fc1">╰</tspan><tspan x="198px" class="fc1">─</tspan><tspan x="207px" class="fc1">─</tspan><tspan x="216px" class="fc1">─</tspan><tspan x="225px" class="fc1">─</tspan><tspan x="234px" class="fc1">─</tspan><tspan x="243px" class="fc1">─</tspan><tspan x="252px" class="fc1">─</tspan><tspan x="261px" class="fc1">─</tspan><tspan x="270px" class="fc1">─</tspan><tspan x="279px" class="fc1">─</tspan><tspan x="288px" class="fc1">─</tspan><tspan x="297px" class="fc1">─</tspan><tspan x="306px" class="fc1">─</tspan><tspan x="315px" class="fc1">─</tspan><tspan x="324px" class="fc1">─</tspan><tspan x="333px" class="fc1">─</tspan><tspan x="342px" class="fc1">─</tspan><tspan x="351px" class="fc1">─</tspan><tspan x="360px" class="fc1">─</tspan><tspan x="369px" class="fc1">─</tspan><tspan x="378px" class="fc1">─</tspan><tspan x="387px" class="fc1">─</tspan><tspan x="396px" class="fc1">─</tspan><tspan x="405px" class="fc1">─</tspan><tspan x="414px" class="fc1">─</tspan><tspan x="423px" class="fc1">─</tspan><tspan x="432px" class="fc1">─</tspan><tspan x="441px" class="fc1">─</tspan><tspan x="450px" class="fc1">─</tspan><tspan x="459px" class="fc1">─</tspan><tspan x="468px" class="fc1">─</tspan><tspan x="477px" class="fc1">─</tspan><tspan x="486px" class="fc1">─</tspan><tspan x="495px" class="fc1">─</tspan><tspan x="504px" class="fc1">─</tspan><tspan x="513px" class="fc1">─</tspan><tspan x="522px" class="fc1">─</tspan><tspan x="531px" class="fc1">─</tspan><tspan x="540px" class="fc1">─</tspan><tspan x="549px" class="fc1">─</tspan><tspan x="558px" class="fc1">─</tspan><tspan x="567px" class="fc1">─</tspan><tspan x="576px" class="fc1">─</tspan><tspan x="585px" class="fc1">─</tspan><tspan x="594px" class="fc1">─</tspan><tspan x="603px" class="fc1">─</tspan><tspan x="612px" class="fc1">─</tspan><tspan x="621px" class="fc1">─</tspan><tspan x="630px" class="fc1">─</tspan><tspan x="639px" class="fc1">─</tspan><tspan x="648px" class="fc1">─</tspan><tspan x="657px" class="fc1">─</tspan><tspan x="666px" class="fc1">─</tspan><tspan x="675px" class="fc1">─</tspan><tspan x="684px" class="fc1">─</tspan><tspan x="693px" class="fc1">─</tspan><tspan x="702px" class="fc1">─</tspan><tspan x="711px" class="fc1">─</tspan><tspan x="720px" class="fc1">─</tspan><tspan x="729px" class="fc1">─</tspan><tspan x="738px" class="fc1">─</tspan><tspan x="747px" class="fc1">─</tspan><tspan x="756px" class="fc1">─</tspan><tspan x="765px" class="fc1">─</tspan><tspan x="774px" class="fc1">╯</tspan></text>
<text x="18px" y="608px"><tspan x="18px" class="bold fc4"> </tspan><tspan x="27px" class="bold fc4">d</tspan><tspan x="36px" class="bold fc4">e</tspan><tspan x="45px" class="bold fc4">v</tspan><tspan x="54px" class="bold fc4"> </tspan><tspan x="63px" class="fc3"> </tspan><tspan x="72px" class="fc3">l</tspan><tspan x="81px" class="fc3">o</tspan><tspan x="90px" class="fc3">r</tspan><tspan x="99px" class="fc3">e</tspan><tspan x="108px" class="fc3">m</tspan><tspan x="117px" class="fc3">.</tspan><tspan x="126px" class="fc3">m</tspan><tspan x="135px" class="fc3">d</tspan><tspan x="144px" class="fc3">*</tspan><tspan x="153px" class="fc3"> </tspan><tspan x="162px" class="fc3"> </tspan><tspan x="171px" class="fc3"> </tspan><tspan x="180px" class="fc3"> </tspan><tspan x="189px" class="fc3"> </tspan><tspan x="198px" class="fc3"> </tspan><tspan x="207px" class="fc3"> </tspan><tspan x="216px" class="fc3"> </tspan><tspan x="225px" class="fc3"> </tspan><tspan x="234px" class="fc3"> </tspan><tspan x="243px" class="fc3"> </tspan><tspan x="252px" class="fc3"> </tspan><tspan x="261px" class="fc3"> </tspan><tspan x="270px" class="fc3"> </tspan><tspan x="279px" class="fc3"> </tspan><tspan x="288px" class="fc3"> </tspan><tspan x="297px" class="fc3"> </tspan><tspan x="306px" class="fc3"> </tspan><tspan x="315px" class="fc3"> </tspan><tspan x="324px" class="fc3"> </tspan><tspan x="333px" class="fc3"> </tspan><tspan x="342px" class="fc3"> </tspan><tspan x="351px" class="fc3"> </tspan><tspan x="360px" class="fc3"> </tspan><tspan x="369px" class="fc3"> </tspan><tspan x="378px" class="fc3"> </tspan><tspan x="387px" class="fc3"> </tspan><tspan x="396px" class="fc3"> </tspan><tspan x="405px" class="fc3"> </tspan><tspan x="414px" class="fc3"> </tspan><tspan x="423px" class="fc3"> </tspan><tspan x="432px" class="fc3"> </tspan><tspan x="441px" class="fc3"> </tspan><tspan x="450px" class="fc3"> </tspan><tspan x="459px" class="fc3"> </tspan><tspan x="468px" class="fc3"> </tspan><tspan x="477px" class="fc3"> </tspan><tspan x="486px" class="fc3"> </tspan><tspan x="495px" class="fc3"> </tspan><tspan x="504px" class="fc3"> </tspan><tspan x="513px" class="fc3"> </tspan><tspan x="522px" class="fc3"> </tspan><tspan x="531px" class="fc3"> </tspan><tspan x="540px" class="fc3"> </tspan><tspan x="549px" class="fc3"> </tspan><tspan x="558px" class="fc3"> </tspan><tspan x="567px" class="fc3"> </tspan><tspan x="576px" class="fc3"> </tspan><tspan x="585px" class="fc3"> </tspan><tspan x="594px" class="fc3"> </tspan><tspan x="603px" class="fc3"> </tspan><tspan x="612px" class="fc3"> </tspan><tspan x="621px" class="fc3"> </tspan><tspan x="630px" class="fc3"> </tspan><tspan x="639px" class="fc3"> </tspan><tspan x="648px" class="fc3"> </tspan><tspan x="657px" class="fc3"> </tspan><tspan x="666px" class="fc3"> </tspan><tspan x="675px" class="fc3"> </tspan><tspan x="684px" class="fc3"> </tspan><tspan x="693px" class="fc3"> </tspan><tspan x="702px" class="fc3"> </tspan><tspan x="711px" class="fc3"> </tspan><tspan x="720px" class="fc3"> </tspan><tspan x="729px" class="fc3"> </tspan><tspan x="738px" class="fc3"> </tspan><tspan x="747px" class="fc3"> </tspan><tspan x="756px" class="fc3"> </tspan><tspan x="765px" class="fc3"> </tspan><tspan x="774px" class="fc3"> </tspan><tspan x="783px" class="fc3"> </tspan><tspan x="792px" class="fc3"> </tspan><tspan x="801px" class="fc3"> </tspan><tspan x="810px" class="fc3"> </tspan><tspan x="819px" class="fc3"> </tspan><tspan x="828px" class="fc3"> </tspan><tspan x="837px" class="fc3"> </tspan><tspan x="846px" class="fc3"> </tspan><tspan x="855px" class="fc3"> </tspan><tspan x="864px" class="fc3"> </tspan><tspan x="873px" class="fc5"> </tspan><tspan x="882px" class="fc5">F</tspan><tspan x="891px" class="fc5">1</tspan><tspan x="900px" class="fc5"> </tspan><tspan x="909px" class="fc5">H</tspan><tspan x="918px" class="fc5">e</tspan><tspan x="927px" class="fc5">l</tspan><tspan x="936px" class="fc5">p</tspan></text>
</svg>
